<?xml version="1.0" encoding="UTF-8"?>
<svg width="700pt" height="700pt" version="1.1" viewBox="0 0 700 700" xmlns="http://www.w3.org/2000/svg">
 <g>
  <path d="m311.15 399.42c-2.4492-1.9062-5.5312-3.4844-9.2383-4.7266-3.7266-1.207-8.0312-2.2734-12.914-3.1836-3.7617-0.71875-6.9844-1.5742-9.6758-2.5039-2.6953-0.96094-4.7617-2.2227-6.1953-3.8164s-2.1523-3.6055-2.1523-6.0742c0-2.0312 0.61328-3.832 1.8359-5.3906 1.207-1.5586 3.0469-2.7812 5.4414-3.6758 2.4336-0.89062 5.3711-1.3477 8.8906-1.3477 2.1172 0 4.4102 0.36719 6.8789 1.0508 2.4492 0.68359 4.7617 1.5586 6.9648 2.5547 2.2031 1.0312 3.9727 2.1172 5.2656 3.2539 0.99609 0.75391 2.082 1.1016 3.3086 1.1016 1.8711 0 3.5-0.73437 4.8828-2.2031 1.3984-1.4688 2.082-3.1133 2.082-4.8984 0-2.4492-1.1719-4.6016-3.5508-6.4766-2.8516-2.4688-6.5469-4.4805-11.078-6.0898-4.5508-1.5742-9.4688-2.3984-14.77-2.3984-5.6367 0-10.762 0.99609-15.434 2.957-4.6719 1.9609-8.3633 4.8125-11.094 8.5586-2.7305 3.7617-4.0938 8.3125-4.0938 13.598 0 3.5156 0.57812 6.6836 1.7148 9.5039 1.1562 2.8008 2.8359 5.2656 5.0938 7.3516 2.2578 2.082 5.0391 3.7969 8.3828 5.1445 3.3438 1.3477 7.2266 2.3438 11.637 2.9922 4.6562 0.64844 8.4883 1.5742 11.516 2.7656 3.0117 1.1719 5.2656 2.625 6.7383 4.3398 1.4688 1.7148 2.2031 3.7969 2.2031 6.2461 0 2.0312-0.76953 3.8672-2.3438 5.4414-1.5391 1.6094-3.5859 2.8711-6.125 3.8164-2.5391 0.94531-5.3008 1.418-8.3281 1.418-4.4961 0-8.2773-0.66406-11.324-1.9766-3.0781-1.2969-6.1602-3.2188-9.2578-5.7383-1.207-0.99609-2.5898-1.4688-4.1484-1.4688-2.0312 0-3.7461 0.71875-5.0742 2.1367-1.3633 1.4336-2.0312 3.0977-2.0312 4.9688 0 1.1211 0.29688 2.293 0.875 3.4141 0.55859 1.1367 1.3633 2.1719 2.4492 3.0781 4.1484 3.5859 8.5234 6.0898 13.109 7.5234 4.5859 1.4336 9.7109 2.1523 15.434 2.1523 5.5469 0 10.711-1.0312 15.504-3.0781 4.7617-2.0312 8.6289-4.9688 11.566-8.8203 2.9414-3.832 4.4102-8.3984 4.4102-13.703 0-4.1641-0.61328-7.6992-1.8203-10.586-1.2461-2.8711-3.082-5.2695-5.5352-7.2109z"/>
  <path d="m411.97 445.06c-1.2969 0-2.5195 0.4375-3.6211 1.2969-1.1016 0.85938-2.3438 1.8203-3.7266 2.8711-1.1367 0.91016-2.4688 1.7344-3.9883 2.4688-1.5234 0.73438-3.3594 1.1016-5.5664 1.1016-2.6953 0-5.0742-0.42188-7.1562-1.2773-2.082-0.85938-4.0938-1.8203-6.0898-2.8867-1.9414-1.0664-4.0078-2.0117-6.1953-2.8711-1.3828-0.54297-3.1484-0.62891-4.8281-0.82422l8.6289-3.2031c2.4492-0.55859 4.8281-1.2773 7.0859-2.2734 5.1094-2.293 9.5195-5.4609 13.23-9.4844 3.7266-4.043 6.5977-8.7148 8.6445-14.051 2.0469-5.3008 3.0781-11.008 3.0781-17.133s-1.0312-11.848-3.0781-17.133c-2.0469-5.3203-4.918-9.9766-8.6445-14.035-3.7109-4.043-8.1211-7.1914-13.23-9.4844-5.0938-2.293-10.656-3.4492-16.711-3.4492-6.0547 0-11.586 1.1562-16.641 3.4492-5.0742 2.293-9.4688 5.4414-13.176 9.4844-3.7109 4.043-6.5977 8.7148-8.6289 14.035-2.0469 5.3008-3.0781 11.023-3.0781 17.133 0 6.1406 1.0312 11.848 3.0781 17.133 2.0312 5.3359 4.918 9.9922 8.6289 14.051 3.7109 4.0234 8.1016 7.1914 13.176 9.4844 2.3984 1.0859 4.9336 1.8711 7.5586 2.4492l-12.215 4.5508c-2.8516 1.0664-4.2891 3.1836-4.2891 6.3516 0 1.8203 0.68359 3.4844 2.082 5.0234 1.3828 1.5586 3.1133 2.3281 5.1445 2.3281 1.9609 0 3.5-0.26172 4.6016-0.78906 1.1016-0.54297 2.1172-1.0664 3.0625-1.6094 0.94531-0.50781 2.1875-0.78906 3.7461-0.78906 2.4492 0 4.5312 0.47266 6.2305 1.3984 1.7344 0.96094 3.5508 2.0117 5.5117 3.2031 1.9414 1.1719 4.4453 2.2383 7.4727 3.1836 3.0273 0.94531 7.0508 1.418 12.109 1.418 2.293 0 4.8477-0.36719 7.6641-1.1016 2.8359-0.73438 5.5312-1.7656 8.1719-3.0625 2.5898-1.2969 4.7422-2.8008 6.4219-4.4805 1.6797-1.6797 2.5039-3.4492 2.5039-5.3359 0-1.8906-0.71875-3.5156-2.1875-4.9531-1.4766-1.4336-3.0664-2.1875-4.7812-2.1875zm-64.508-31.41c-2.1523-4.4453-3.2539-9.3984-3.2539-14.891 0-5.5469 1.1016-10.535 3.2539-14.945 2.1523-4.4102 5.1641-7.9102 9.0117-10.535 3.8516-2.5898 8.2969-3.9219 13.352-3.9219 5.0586 0 9.5195 1.3125 13.371 3.9219 3.832 2.6094 6.8594 6.1602 9.0664 10.586 2.2031 4.4609 3.3086 9.4141 3.3086 14.891 0 5.4766-1.1016 10.449-3.3086 14.891-2.2031 4.4453-5.2344 7.9961-9.0664 10.586-3.8516 2.6094-8.3125 3.9375-13.371 3.9375-5.0586 0-9.5039-1.3125-13.352-3.9375-3.8477-2.5859-6.8398-6.1367-9.0117-10.582z"/>
  <path d="m472.36 427.32h-31.973v-63.945c0-2.1172-0.75391-3.9023-2.2734-5.3359-1.5039-1.4336-3.2539-2.1523-5.1992-2.1523-2.293 0-4.1641 0.71875-5.6367 2.1523-1.4688 1.4336-2.2031 3.2188-2.2031 5.3359v70.805c0 2.1172 0.71875 3.9023 2.1367 5.3203 1.4336 1.4336 3.2188 2.1523 5.3359 2.1523h39.812c2.1172 0 3.9023-0.68359 5.3359-2.0117 1.4336-1.3477 2.1367-3.0469 2.1367-5.0938 0-2.1172-0.69922-3.8672-2.1367-5.1992-1.4336-1.3633-3.2188-2.0273-5.3359-2.0273z"/>
  <path d="m524.48 306.25h-8.2266v-164.85c0-6.9648-1.5234-13.562-4.0078-19.703-0.17578-1.8203-0.80469-3.5156-1.9258-4.8477-0.68359-1.3828-1.5938-2.6953-2.4141-4.0234-0.54297-0.89062-0.99609-1.8203-1.6094-2.6758-1.7656-2.5195-3.7109-4.918-5.8984-7.1211l-60.898-60.898c-4.6719-4.6719-10.203-8.4336-15.75-10.816-0.015625-0.015625-0.050782-0.015625-0.070313-0.015625-0.070312-0.035156-0.14062-0.085937-0.21094-0.10547-0.070313-0.035156-0.15625 0-0.22656-0.035156-6.9648-3.2422-14.387-4.9062-22.137-4.9062h-222.25c-16.609 0-30.102 13.492-30.102 30.102v447.3c0 16.59 13.492 30.102 30.102 30.102h307.3c16.59 0 30.102-13.492 30.102-30.102v-4.8984h8.2266c14.77 0 26.773-12.023 26.773-26.773v-138.95c0-14.75-12.023-26.773-26.773-26.773zm-38.098-192.5h-48.879c-4.8125 0-8.75-3.9375-8.75-8.75v-48.879zm12.371 389.9c0 6.9297-5.6523 12.602-12.602 12.602h-307.3c-6.9297 0-12.602-5.6523-12.602-12.602v-447.3c0-6.9297 5.6523-12.602 12.602-12.602h222.25c3.5156 0 6.8438 0.66406 10.148 1.6641v59.586c0 14.473 11.777 26.25 26.25 26.25h59.605c0.98047 3.2539 1.6445 6.5977 1.6445 10.148v164.85h-141.23c-2.5195 0-4.8477-0.96094-6.5781-2.6758l-7-7c-5.0586-5.0586-11.797-7.8242-18.969-7.8242h-114.45c-14.77 0-26.773 12.023-26.773 26.773v156.43c0 14.77 12.023 26.773 26.773 26.773l288.23 0.003906zm35-31.672c0 5.1094-4.1641 9.2734-9.2734 9.2734h-313.95c-5.1094 0-9.2734-4.1641-9.2734-9.2734v-156.45c0-5.1094 4.1641-9.2734 9.2734-9.2734h114.45c2.5195 0 4.8477 0.96094 6.5781 2.6758l7 7c5.0391 5.0391 11.777 7.8047 18.953 7.8047l150 0.003906h16.977c5.1094 0 9.2734 4.1641 9.2734 9.2734z"/>
  <path d="m287.66 271.25c13.141 0 78.75-1.2617 78.75-26.25v-157.5c0-24.988-65.609-26.25-78.75-26.25-13.141 0-78.75 1.2617-78.75 26.25v157.5c0 24.988 65.609 26.25 78.75 26.25zm61.25-27.738c-4.5508 3.7812-26.023 10.238-61.25 10.238-35.227 0-56.699-6.457-61.25-10.238v-33.109c0.4375 0.17578 0.96094 0.28125 1.418 0.45312 1.75 0.62891 3.5703 1.207 5.4609 1.7344 0.73438 0.21094 1.4531 0.42188 2.2031 0.61328 5.1797 1.3281 10.676 2.3438 16.152 3.1133 0.80469 0.12109 1.5938 0.21094 2.4141 0.31641 2.0469 0.26172 4.0586 0.48828 6.0547 0.69922 0.75391 0.070313 1.4688 0.15625 2.2031 0.22656 2.5742 0.22656 5.0742 0.4375 7.4375 0.59375h0.10547c2.4336 0.15625 4.6719 0.26172 6.7891 0.35156 0.66406 0.035156 1.2266 0.050782 1.8555 0.070313 1.4531 0.050781 2.7812 0.085937 4.0078 0.10547 0.48828 0.015624 0.96094 0.015624 1.418 0.035156 1.4688 0.015625 2.7812 0.035156 3.7461 0.035156 0.96094 0 2.2734-0.015625 3.7461-0.035156 0.45312 0 0.91016-0.015625 1.418-0.035156 1.2266-0.015626 2.5547-0.070313 4.0078-0.10547 0.62891-0.015625 1.1914-0.035157 1.8555-0.070313 2.1172-0.085937 4.3398-0.19141 6.7891-0.35156h0.10547c2.3633-0.15625 4.8828-0.35156 7.4375-0.59375 0.73438-0.070313 1.4688-0.14062 2.2031-0.22656 1.9961-0.19141 4.0078-0.4375 6.0547-0.69922 0.80469-0.10547 1.5938-0.19141 2.4141-0.31641 5.4766-0.76953 10.973-1.7852 16.152-3.1133 0.75391-0.19141 1.4688-0.40234 2.2031-0.61328 1.8906-0.52344 3.7109-1.1211 5.4609-1.7344 0.45312-0.15625 0.96094-0.28125 1.418-0.45312l0.003907 33.109zm-115.64-135.9c0.73828 0.19141 1.4531 0.41797 2.207 0.60938 5.1797 1.3281 10.676 2.3438 16.152 3.1133 0.80469 0.12109 1.5938 0.21094 2.4141 0.31641 2.0469 0.26172 4.0586 0.48828 6.0547 0.69922 0.75391 0.070313 1.4688 0.15625 2.2031 0.22656 2.5742 0.22656 5.0742 0.4375 7.4375 0.59375h0.10547c2.4336 0.15625 4.6719 0.26172 6.7891 0.35156 0.66406 0.035157 1.2266 0.050781 1.8555 0.070313 1.4531 0.050781 2.7812 0.085937 4.0078 0.10547 0.48828 0.015626 0.96094 0.015626 1.418 0.035157 1.4727 0.003906 2.7852 0.019531 3.7461 0.019531 0.96094 0 2.2734-0.015625 3.7461-0.035156 0.45312 0 0.91016-0.015625 1.418-0.035156 1.2266-0.015626 2.5547-0.070313 4.0078-0.10547 0.62891-0.015625 1.1914-0.035157 1.8555-0.070313 2.1172-0.085937 4.3398-0.19141 6.7891-0.35156h0.10547c2.3633-0.15625 4.8828-0.35156 7.4375-0.59375 0.73437-0.070313 1.4688-0.14062 2.2031-0.22656 1.9961-0.19141 4.0078-0.4375 6.0547-0.69922 0.80469-0.10547 1.5938-0.19141 2.4141-0.31641 5.4766-0.76953 10.973-1.7852 16.152-3.1133 0.75391-0.19141 1.4688-0.40234 2.2031-0.61328 1.8906-0.52344 3.7109-1.1211 5.4609-1.7344 0.45312-0.15625 0.96094-0.28125 1.418-0.45312v33.074c-0.21094 0.17578-0.61328 0.38672-0.89063 0.55859-0.48828 0.33594-0.89062 0.63281-1.5391 0.94922-0.48828 0.24609-1.1914 0.50781-1.7852 0.75391-0.71875 0.29688-1.3281 0.59375-2.2031 0.91016-0.82422 0.29687-1.8711 0.59375-2.8164 0.875-0.89062 0.28125-1.6797 0.55859-2.6953 0.82422-1.1914 0.31641-2.6094 0.61328-3.9375 0.92578-1.0312 0.24609-1.9414 0.48828-3.0625 0.71875-1.5586 0.31641-3.3789 0.59375-5.1094 0.89062-1.1758 0.20703-2.1914 0.41797-3.3984 0.59375-1.9062 0.28125-4.0586 0.50781-6.1602 0.73438-1.2773 0.14062-2.4141 0.31641-3.7617 0.45312-2.3438 0.22656-4.9531 0.36719-7.4883 0.52344-1.2969 0.085938-2.4492 0.19141-3.7969 0.26172-3.9922 0.19531-8.1914 0.30078-12.621 0.30078-4.4258 0-8.6445-0.10547-12.637-0.29688-1.3281-0.070313-2.4844-0.17578-3.7617-0.26172-2.5547-0.15625-5.1641-0.31641-7.5234-0.52344-1.3125-0.12109-2.4492-0.29688-3.7109-0.4375-2.1172-0.24609-4.2891-0.47266-6.2109-0.75391-1.207-0.17578-2.2383-0.38672-3.3789-0.57812-1.7344-0.29688-3.5508-0.57813-5.1094-0.89063-1.1211-0.23047-2.0312-0.47656-3.0625-0.71875-1.3477-0.31641-2.7656-0.61328-3.9375-0.92969-1.0156-0.28125-1.7852-0.54297-2.6758-0.82031-0.96484-0.30078-2.0312-0.59766-2.8555-0.89453-0.85547-0.29688-1.4688-0.59375-2.168-0.89062-0.59375-0.26172-1.3125-0.52344-1.8008-0.76953-0.64844-0.33203-1.0508-0.62891-1.5234-0.92578-0.29688-0.19531-0.69922-0.38672-0.89453-0.5625v-33.074c0.4375 0.17578 0.96094 0.28125 1.418 0.45312 1.75 0.61328 3.5547 1.1914 5.4414 1.7344zm0 52.5c0.73828 0.19141 1.4531 0.41797 2.207 0.60938 5.1797 1.3281 10.676 2.3438 16.152 3.1133 0.80469 0.12109 1.5938 0.21094 2.4141 0.31641 2.0469 0.26172 4.0586 0.48828 6.0547 0.69922 0.75391 0.070313 1.4688 0.15625 2.2031 0.22656 2.5742 0.22656 5.0742 0.4375 7.4375 0.59375h0.10547c2.4336 0.15625 4.6719 0.26172 6.7891 0.35156 0.66406 0.035157 1.2266 0.050781 1.8555 0.070313 1.4531 0.050781 2.7812 0.085937 4.0078 0.10547 0.48828 0.015626 0.96094 0.015626 1.418 0.035157 1.4727 0.003906 2.7852 0.019531 3.7461 0.019531 0.96094 0 2.2734-0.015625 3.7461-0.035156 0.45312 0 0.91016-0.015625 1.418-0.035156 1.2266-0.015626 2.5547-0.070313 4.0078-0.10547 0.62891-0.015625 1.1914-0.035157 1.8555-0.070313 2.1172-0.085937 4.3398-0.19141 6.7891-0.35156h0.10547c2.3633-0.15625 4.8828-0.35156 7.4375-0.59375 0.73437-0.070313 1.4688-0.14062 2.2031-0.22656 1.9961-0.19141 4.0078-0.4375 6.0547-0.69922 0.80469-0.10547 1.5938-0.19141 2.4141-0.31641 5.4766-0.76953 10.973-1.7852 16.152-3.1133 0.75391-0.19141 1.4688-0.40234 2.2031-0.61328 1.8906-0.52344 3.7109-1.1211 5.4609-1.7344 0.45312-0.15625 0.96094-0.28125 1.418-0.45312v33.074c-0.21094 0.17578-0.61328 0.38672-0.89063 0.55859-0.45312 0.29688-0.85937 0.59375-1.5234 0.92578-0.48828 0.24609-1.1914 0.50781-1.7852 0.75391-0.71875 0.29688-1.3281 0.59375-2.2031 0.91016-0.82422 0.29688-1.8711 0.59375-2.8164 0.875-0.89063 0.28125-1.6797 0.55859-2.6953 0.82422-1.1914 0.31641-2.6094 0.61328-3.9375 0.92578-1.0312 0.24609-1.9414 0.48828-3.0625 0.71875-1.5586 0.31641-3.3789 0.59375-5.1094 0.89062-1.1367 0.19141-2.1523 0.40234-3.3789 0.57812-1.9062 0.28125-4.0586 0.50781-6.1602 0.73438-1.2773 0.14062-2.4141 0.31641-3.7617 0.45312-2.3438 0.22656-4.9531 0.36719-7.4883 0.52344-1.2969 0.085937-2.4492 0.19141-3.7969 0.26172-3.9883 0.19141-8.1914 0.29688-12.637 0.29688-4.4453 0-8.6445-0.10547-12.637-0.29688-1.3281-0.070312-2.4844-0.17578-3.7617-0.26172-2.5547-0.15625-5.1641-0.31641-7.5234-0.52344-1.3125-0.12109-2.4492-0.29688-3.7109-0.4375-2.1172-0.24609-4.2891-0.47266-6.2109-0.75391-1.207-0.17578-2.2383-0.38672-3.3789-0.57812-1.7344-0.29688-3.5508-0.57812-5.1094-0.89062-1.1211-0.22656-2.0312-0.47266-3.0625-0.71875-1.3477-0.31641-2.7656-0.61328-3.9375-0.92578-0.99609-0.28125-1.7852-0.54297-2.6758-0.82422-0.96094-0.29688-2.0312-0.59375-2.8516-0.89062-0.85938-0.29688-1.4688-0.59375-2.1719-0.89062-0.59375-0.26172-1.3125-0.52344-1.8008-0.76953-0.64844-0.33203-1.0508-0.62891-1.5234-0.92578-0.28125-0.19141-0.68359-0.38672-0.89062-0.55859v-33.074c0.4375 0.17578 0.96094 0.28125 1.418 0.45312 1.7266 0.64844 3.5312 1.2266 5.418 1.7695zm113.23-72.625c-1.0312 0.52344-2.2734 1.0508-3.7969 1.6094h-0.015625c-1.4883 0.54297-3.2188 1.0664-5.1445 1.6094-0.4375 0.12109-0.92578 0.22656-1.3828 0.35156-1.5742 0.42187-3.2891 0.82422-5.1289 1.207-0.71875 0.15625-1.4883 0.29688-2.2383 0.45312-1.75 0.33203-3.6055 0.66406-5.5664 0.98047-0.96094 0.15625-1.9609 0.29688-2.9766 0.4375-1.9609 0.28125-4.0586 0.52344-6.2109 0.75391-1.1562 0.12109-2.293 0.26172-3.5 0.36719-2.3281 0.21094-4.8281 0.36719-7.3672 0.52344-1.1719 0.070312-2.293 0.15625-3.5 0.21094-3.8359 0.15625-7.8086 0.26172-12.008 0.26172-4.1992 0-8.1914-0.10547-11.988-0.28125-1.207-0.050781-2.3281-0.14062-3.5-0.21094-2.5391-0.15625-5.0234-0.31641-7.3672-0.52344-1.207-0.10547-2.3438-0.24609-3.5-0.36719-2.1523-0.22656-4.2539-0.47266-6.2109-0.75391-1.0156-0.14062-2.0117-0.29688-2.9766-0.4375-1.9609-0.31641-3.8164-0.62891-5.5664-0.98047-0.76563-0.12109-1.5391-0.27734-2.2539-0.43359-1.8555-0.38672-3.5547-0.78906-5.1289-1.2109-0.45312-0.10156-0.94531-0.22656-1.3828-0.34766-3.9023-1.0859-6.9102-2.1875-8.9766-3.2188 7.5586-3.7656 27.879-8.7344 58.852-8.7344 30.977 0 51.277 4.9688 58.836 8.7344z"/>
  <path d="m320.3 224.39-13.809 1.3984c-4.7969 0.47266-8.3125 4.7617-7.8047 9.5898 0.4375 4.4961 4.2539 7.8594 8.6797 7.8594 0.31641 0 0.59375-0.015625 0.91016-0.050781l13.809-1.3984c4.7969-0.47266 8.3125-4.7617 7.8047-9.5898-0.48828-4.8008-4.9141-8.3164-9.5898-7.8086z"/>
  <path d="m268.82 225.79-13.809-1.3984c-4.7422-0.50781-9.1172 3.0117-9.5898 7.8047-0.48828 4.8125 3.0117 9.1172 7.8047 9.5898l13.809 1.3984c0.31641 0.035156 0.59375 0.050781 0.91016 0.050781 4.4258 0 8.2422-3.3594 8.6797-7.8594 0.50781-4.8086-2.9922-9.0977-7.8047-9.5859z"/>
  <path d="m307.35 190.98c0.31641 0 0.59375-0.015624 0.91016-0.050781l13.809-1.3984c4.7969-0.47266 8.3125-4.7617 7.8047-9.5898-0.47266-4.7969-4.8984-8.3828-9.5898-7.8047l-13.809 1.3984c-4.7969 0.47266-8.3125 4.7617-7.8047 9.5898 0.45703 4.4961 4.2695 7.8555 8.6797 7.8555z"/>
  <path d="m253.24 189.52 13.809 1.3984c0.31641 0.035156 0.59375 0.050781 0.91016 0.050781 4.4258 0 8.2422-3.3594 8.6797-7.8594 0.48828-4.8125-3.0117-9.1172-7.8047-9.5898l-13.809-1.3984c-4.7422-0.57812-9.1172 3.0117-9.5898 7.8047-0.50781 4.8359 2.9922 9.1211 7.8047 9.5938z"/>
  <path d="m307.35 138.74c0.31641 0 0.59375-0.015625 0.91016-0.050781l13.809-1.3984c4.7969-0.47266 8.3125-4.7617 7.8047-9.5898-0.47266-4.8125-4.8984-8.3633-9.5898-7.8047l-13.809 1.3984c-4.7969 0.47266-8.3125 4.7617-7.8047 9.5898 0.45703 4.4805 4.2695 7.8555 8.6797 7.8555z"/>
  <path d="m253.24 137.29 13.809 1.3984c0.31641 0.035156 0.59375 0.050781 0.91016 0.050781 4.4258 0 8.2422-3.3594 8.6797-7.8594 0.48828-4.8125-3.0117-9.1172-7.8047-9.5898l-13.809-1.3984c-4.7422-0.54297-9.1172 2.9922-9.5898 7.8047-0.50781 4.8164 2.9922 9.1016 7.8047 9.5938z"/>
 </g>
</svg>
